<svg xmlns="http://www.w3.org/2000/svg" width="240" height="40" viewBox="0 0 240 40" role="img" aria-label="AI Call Docs">
  <g transform="translate(4,6)">
    <g transform="scale(1)">
      
        <defs>
          <linearGradient id="grad" x1="0" y1="0" x2="1" y2="1">
            <stop offset="0%" stop-color="#2E74FF"/>
            <stop offset="100%" stop-color="#1E4ED8"/>
          </linearGradient>
        </defs>
        <rect x="0" y="0" width="28" height="28" rx="7" ry="7" fill="url(#grad)"/>

      <circle cx="8.5" cy="9" r="1.2" fill="#FFFFFF"/>
      <circle cx="6.5" cy="13" r="1.2" fill="#FFFFFF"/>
      <circle cx="9" cy="17" r="1.2" fill="#FFFFFF"/>
      <circle cx="11.5" cy="13" r="1.2" fill="#FFFFFF"/>
      <path d="M6.5 13 Q7.6 10.9 8.5 9" stroke="#FFFFFF" stroke-width="1.6" fill="none" stroke-linecap="round"/>
      <path d="M8.5 9 Q10 11.4 11.5 13" stroke="#FFFFFF" stroke-width="1.6" fill="none" stroke-linecap="round"/>
      <path d="M6.5 13 Q7.8 15.2 9 17" stroke="#FFFFFF" stroke-width="1.6" fill="none" stroke-linecap="round"/>

      <path d="M18 8 q6 -3 9 3 l1 2 q1.5 3 -1 5 l-4 3 q-2 1.5 -4 -0.5 l-5 -5 q-2 -2 -0.5 -4 z" fill="#FFFFFF" opacity="0.95"/>
      <rect x="21" y="20" width="6.5" height="3" rx="1.2" fill="#FFFFFF"/>
      <rect x="16.2" y="15.5" width="5.8" height="2.6" rx="1.2" fill="#FFFFFF"/>
    </g>
    <g transform="translate(36,5)">
      <style>
        .title { font: 700 18px Inter, ui-sans-serif, system-ui, -apple-system, Segoe UI, Roboto, Helvetica, Arial, "Apple Color Emoji","Segoe UI Emoji"; fill: #FFFFFF; }
      </style>
      <text class="title" x="0" y="18">AI Call Docs</text>
    </g>
  </g>
</svg>